<svg id="Layer_1" data-name="Layer 1" xmlns="http://www.w3.org/2000/svg" viewBox="0 0 500 500"><defs><style>.cls-1{fill:#1c1c1e;}.cls-2{fill:#d1d1d6;}</style></defs><rect class="cls-1" x="0.96" width="500" height="500" rx="130"/><path class="cls-2" d="M247.2,240.78h-22V203.93h26.11c14.19,0,22.25,6.33,22.25,17.79C273.57,233.94,264.2,240.78,247.2,240.78Z"/><path class="cls-2" d="M279.35,275.59c0,13.34-9.37,20.43-27.06,20.43H225.21V255.41h25.93C269.71,255.41,279.35,262.25,279.35,275.59Z"/><path class="cls-2" d="M368.57,215.1c-4.94-16-5.62-35.63-5.09-50.78C364,148.55,351.73,134,335.12,134H164.9c-16.61,0-28.9,14.55-28.35,30.32.53,15.15-.16,34.78-5.1,50.78s-13.33,26.21-27,27.51v14.78c13.69,1.3,22.06,11.45,27,27.51s5.63,35.63,5.1,50.78C136,351.45,148.29,366,164.9,366H335.12c16.61,0,28.9-14.55,28.36-30.32-.53-15.15.15-34.78,5.09-50.78s13.31-26.21,27-27.51V242.61C381.88,241.31,373.52,231.16,368.57,215.1ZM256.31,311.67H205.59V188.28h50.46c22.43,0,37.14,12.14,37.14,30.79,0,13.08-9.9,24.79-22.51,26.84v.69c17.17,1.88,28.73,13.77,28.73,30.18C299.41,298.5,283.21,311.67,256.31,311.67Z"/></svg>