<svg id="Layer_1" data-name="Layer 1" xmlns="http://www.w3.org/2000/svg" viewBox="0 0 500 500"><defs><style>.cls-1{fill:#1c1c1e;}.cls-2{fill:#d1d1d6;}</style></defs><rect class="cls-1" width="500" height="500" rx="130"/><path class="cls-2" d="M384,237.6,262.4,116A17.94,17.94,0,0,0,237,116l-25.25,25.26,32,32a21.3,21.3,0,0,1,27,27.15l30.87,30.87a21.32,21.32,0,1,1-12.78,12l-28.8-28.79v75.76a21.72,21.72,0,0,1,5.65,4,21.32,21.32,0,1,1-23.19-4.66V213.23a21,21,0,0,1-7-4.66,21.32,21.32,0,0,1-4.6-23.33l-31.57-31.58L116,237a17.93,17.93,0,0,0,0,25.37L237.6,384A17.94,17.94,0,0,0,263,384L384,263a17.93,17.93,0,0,0,0-25.37"/></svg>