<svg id="Layer_1" data-name="Layer 1" xmlns="http://www.w3.org/2000/svg" viewBox="0 0 500 500"><defs><style>.cls-1{fill:#1c1c1e;}.cls-2{fill:#d1d1d6;}</style></defs><rect class="cls-1" width="500" height="500" rx="130"/><path class="cls-2" d="M249.9,357.5l.1,0v0Zm-.1-72.67v.1h.2v-.1Z"/><path class="cls-2" d="M146.82,133l18.77,210.68L249.83,367l84.58-23.43L353.18,133Zm165.41,68.88H213.48l2.39,26.45h94l-7.11,79.29L250,322.26v.15l-53-14.79-3.64-40.56h25.94l1.82,20.65,28.83,7.72H250l28.72-7.71,3-33.56H249.89v-.05H192.21l-7.05-78H314.61Z"/><path class="cls-2" d="M249.9,357.5l.1,0v0Zm-.1-72.67v.1h.2v-.1Z"/></svg>