<svg id="Layer_1" data-name="Layer 1" xmlns="http://www.w3.org/2000/svg" viewBox="0 0 500 500"><defs><style>.cls-1{fill:#1c1c1e;}.cls-2{fill:#d1d1d6;}</style></defs><rect class="cls-1" width="500" height="500" rx="130"/><path class="cls-2" d="M250,134c-31.5,0-35.46.14-47.83.7s-20.78,2.52-28.15,5.39A59.38,59.38,0,0,0,140.09,174c-2.88,7.38-4.83,15.81-5.39,28.16S134,218.5,134,250s.14,35.45.7,47.82,2.53,20.78,5.39,28.15A59.38,59.38,0,0,0,174,359.91c7.38,2.87,15.81,4.82,28.16,5.39s16.33.7,47.83.7,35.44-.14,47.82-.7,20.79-2.52,28.17-5.39A59.48,59.48,0,0,0,359.91,326c2.85-7.38,4.81-15.81,5.39-28.16s.7-16.32.7-47.82-.15-35.46-.7-47.83-2.54-20.78-5.39-28.15A59.38,59.38,0,0,0,326,140.09c-7.4-2.87-15.83-4.82-28.18-5.39S281.49,134,250,134ZM239.6,154.9H250c31,0,34.64.12,46.87.67,11.31.52,17.45,2.41,21.54,4a38.4,38.4,0,0,1,22,22c1.59,4.09,3.48,10.22,4,21.53.55,12.23.67,15.91.67,46.86s-.12,34.63-.67,46.86c-.52,11.31-2.41,17.45-4,21.54a38.5,38.5,0,0,1-22,22c-4.08,1.59-10.23,3.48-21.54,4-12.22.56-15.9.68-46.87.68s-34.64-.12-46.87-.68c-11.31-.52-17.45-2.41-21.54-4a38.4,38.4,0,0,1-22-22c-1.59-4.09-3.48-10.23-4-21.54-.55-12.23-.66-15.9-.66-46.88s.11-34.63.66-46.85c.52-11.31,2.41-17.45,4-21.54a38.44,38.44,0,0,1,22-22c4.09-1.6,10.23-3.48,21.54-4,10.7-.49,14.85-.63,36.46-.65Zm72.33,19.26a13.92,13.92,0,1,0,13.92,13.92,13.92,13.92,0,0,0-13.92-13.92ZM250,190.43A59.57,59.57,0,1,0,309.57,250,59.57,59.57,0,0,0,250,190.43Zm0,20.9A38.67,38.67,0,1,1,211.34,250,38.67,38.67,0,0,1,250,211.33Z"/></svg>