<svg id="Layer_1" data-name="Layer 1" xmlns="http://www.w3.org/2000/svg" viewBox="0 0 500 500"><defs><style>.cls-1{fill:#1c1c1e;}.cls-2{fill:#d1d1d6;}</style></defs><rect class="cls-1" width="500" height="500" rx="130"/><path class="cls-2" d="M279.7,285.18c7.58,12.38,17.44,21.48,34.88,21.48,14.66,0,24-7.32,24-17.44,0-12.13-9.62-16.42-25.75-23.48L304,262c-25.52-10.87-42.47-24.49-42.47-53.28,0-26.52,20.21-46.71,51.79-46.71,22.48,0,38.65,7.82,50.29,28.31L336.09,208c-6.06-10.87-12.61-15.15-22.76-15.15-10.36,0-16.92,6.57-16.92,15.15,0,10.61,6.57,14.9,21.74,21.48l8.84,3.78c30.05,12.89,47,26,47,55.55C374,320.6,349,338,315.4,338c-32.84,0-54-15.65-64.44-36.16Zm-124.92,3.07c5.56,9.85,10.61,18.19,22.76,18.19,11.62,0,19-4.55,19-22.22V164h35.36V284.7c0,36.61-21.47,53.28-52.8,53.28-28.32,0-44.71-14.66-53.05-32.3Z"/></svg>