<svg id="Layer_1" data-name="Layer 1" xmlns="http://www.w3.org/2000/svg" viewBox="0 0 500 500"><defs><style>.cls-1{fill:#1c1c1e;}.cls-2{fill:#d1d1d6;}</style></defs><rect class="cls-1" width="500" height="500" rx="130"/><path id="path1948" class="cls-2" d="M248.43,116.5A181.73,181.73,0,0,0,218,119.1c-27,4.76-31.85,14.73-31.85,33.11v24.28h63.7v8.09h-87.6c-18.52,0-34.73,11.13-39.8,32.29-5.85,24.27-6.11,39.41,0,64.74,4.53,18.86,15.34,32.3,33.86,32.3h21.9V284.8c0-21,18.19-39.57,39.79-39.57h63.62c17.71,0,31.85-14.58,31.85-32.36V152.21c0-17.26-14.56-30.23-31.85-33.11A198.81,198.81,0,0,0,248.43,116.5ZM214,136A12.14,12.14,0,1,1,202,148.2,12.08,12.08,0,0,1,214,136Z"/><path id="path1950" class="cls-2" d="M321.41,184.58v28.29c0,21.92-18.6,40.38-39.8,40.38H218c-17.43,0-31.85,14.92-31.85,32.37v60.65c0,17.27,15,27.42,31.85,32.37,20.16,5.93,39.5,7,63.62,0,16-4.64,31.85-14,31.85-32.37V322H249.84v-8.09h95.47c18.51,0,25.41-12.92,31.85-32.3,6.65-19.95,6.37-39.14,0-64.74-4.58-18.42-13.31-32.29-31.85-32.29Zm-35.79,153.6a12.14,12.14,0,1,1-11.95,12.1A12,12,0,0,1,285.62,338.18Z"/></svg>