<svg id="Layer_1" data-name="Layer 1" xmlns="http://www.w3.org/2000/svg" viewBox="0 0 500 500"><defs><style>.cls-1{fill:#1c1c1e;}.cls-2{fill:#d1d1d6;}</style></defs><rect class="cls-1" width="500" height="500" rx="130"/><path id="path1948" class="cls-2" d="M248.67,137.27a154.12,154.12,0,0,0-25.7,2.19c-22.76,4-26.9,12.44-26.9,28v20.5h53.79v6.84h-74c-15.63,0-29.32,9.39-33.6,27.27-4.94,20.49-5.16,33.27,0,54.66,3.82,15.93,13,27.27,28.58,27.27h18.5V279.39c0-17.75,15.36-33.41,33.6-33.41h53.72a27.11,27.11,0,0,0,26.9-27.34V167.42c0-14.57-12.3-25.52-26.9-28A168.85,168.85,0,0,0,248.67,137.27Zm-29.09,16.49A10.25,10.25,0,1,1,209.49,164,10.21,10.21,0,0,1,219.58,153.76Z"/><path id="path1950" class="cls-2" d="M310.3,194.76v23.88c0,18.52-15.7,34.11-33.61,34.11H223c-14.72,0-26.9,12.59-26.9,27.33V331.3c0,14.57,12.68,23.15,26.9,27.33,17,5,33.35,5.91,53.72,0,13.55-3.92,26.9-11.81,26.9-27.33V310.8H249.86V304h80.62c15.64,0,21.46-10.9,26.9-27.27,5.61-16.85,5.37-33.05,0-54.66-3.87-15.56-11.24-27.27-26.9-27.27Zm-30.22,129.7A10.25,10.25,0,1,1,270,334.68,10.15,10.15,0,0,1,280.08,324.46Z"/></svg>