<svg id="Layer_1" data-name="Layer 1" xmlns="http://www.w3.org/2000/svg" viewBox="0 0 500 500"><defs><style>.cls-1{fill:#1c1c1e;}.cls-2{fill:#d1d1d6;fill-rule:evenodd;}</style></defs><rect class="cls-1" width="500" height="500" rx="130"/><path id="Path-3" class="cls-2" d="M123,236.22q96.35-42,128.49-55.35c61.19-25.45,73.9-29.87,82.19-30,1.82,0,5.89.42,8.53,2.56a9.27,9.27,0,0,1,3.14,6,39.17,39.17,0,0,1,.37,8.68c-3.32,34.84-17.66,119.38-25,158.4-3.09,16.51-9.17,22.05-15.06,22.59-12.8,1.17-22.51-8.46-34.9-16.58-19.39-12.71-30.35-20.63-49.17-33-21.75-14.33-7.65-22.21,4.74-35.09,3.25-3.37,59.62-54.64,60.71-59.3.14-.58.27-2.75-1-3.89s-3.19-.75-4.56-.44q-2.92.66-92.94,61.42Q175.4,271.2,164.69,271c-7.87-.17-23-4.45-34.25-8.11-13.8-4.48-24.76-6.85-23.81-14.47Q107.38,242.44,123,236.22Z"/></svg>