<svg id="Layer_1" data-name="Layer 1" xmlns="http://www.w3.org/2000/svg" viewBox="0 0 500 500"><defs><style>.cls-1{fill:#1c1c1e;}.cls-2{fill:#d1d1d6;}</style></defs><rect class="cls-1" width="500" height="500" rx="130"/><g id="Logo"><path id="white_background" data-name="white background" class="cls-2" d="M342,202.8c.14,2,.14,4.08.14,6.14,0,62.72-47.75,135.06-135.06,135.06v0a134.35,134.35,0,0,1-72.76-21.28,96.92,96.92,0,0,0,11.29.69,95.3,95.3,0,0,0,59-20.36,47.54,47.54,0,0,1-44.35-33,47.31,47.31,0,0,0,21.43-.82,47.48,47.48,0,0,1-38.07-46.53v-.6A47.23,47.23,0,0,0,165.12,228a47.52,47.52,0,0,1-14.69-63.38,134.75,134.75,0,0,0,97.83,49.59A47.51,47.51,0,0,1,329.15,171a95.23,95.23,0,0,0,30.14-11.53,47.66,47.66,0,0,1-20.87,26.26,94.21,94.21,0,0,0,27.26-7.48A96.46,96.46,0,0,1,342,202.8Z"/></g></svg>