<svg id="Layer_1" data-name="Layer 1" xmlns="http://www.w3.org/2000/svg" viewBox="0 0 500 500"><defs><style>.cls-1{fill:#1c1c1e;}.cls-2{fill:#d1d1d6;}</style></defs><rect class="cls-1" width="500" height="500" rx="130"/><path class="cls-2" d="M341.25,158.82A128.08,128.08,0,0,0,250,121c-71.15,0-129,57.84-129,129a128.59,128.59,0,0,0,19.7,68.62l3.08,4.89-13,47.57,48.83-12.81,4.7,2.81A128.76,128.76,0,0,0,250,379h0a128.13,128.13,0,0,0,64.15-17.11,136.19,136.19,0,0,0,13-8.54c3.31-2.49,6.5-5.13,9.55-7.89l2.26-2.11c.74-.72,1.48-1.43,2.22-2.17a128.89,128.89,0,0,0,.1-182.36ZM325.92,305.38c-3.23,9.05-19.05,17.78-26.16,18.44s-13.8,3.2-46.53-9.7c-39.43-15.55-64.32-55.95-66.26-58.54s-15.84-21-15.84-40.1,10-28.48,13.58-32.36a14.26,14.26,0,0,1,10.34-4.85l7.45.11c2.74.1,5.8.23,8.71,6.68,3.46,7.68,11,26.86,12,28.8a7.14,7.14,0,0,1,.31,6.79,25.73,25.73,0,0,1-3.86,6.47c-2,2.26-4.09,5-5.82,6.8-2,1.92-4,4-1.71,7.91s10,16.56,21.58,26.85c14.81,13.2,27.3,17.3,31.18,19.24s6.14,1.62,8.4-1,9.7-11.33,12.27-15.21,5.19-3.23,8.73-1.94,22.62,10.67,26.5,12.61,6.47,2.91,7.44,4.54S329.14,296.33,325.92,305.38Z"/></svg>