<svg id="Layer_1" data-name="Layer 1" xmlns="http://www.w3.org/2000/svg" viewBox="0 0 500 500"><defs><style>.cls-1{fill:#1c1c1e;}.cls-2{fill:#d1d1d6;}</style></defs><rect class="cls-1" width="500" height="500" rx="130"/><path class="cls-2" d="M137.62,250A112.41,112.41,0,0,0,201,351.14l-53.6-146.88A111.89,111.89,0,0,0,137.62,250Z"/><path class="cls-2" d="M325.86,244.33c0-13.89-5-23.51-9.27-31-5.69-9.25-11-17.09-11-26.35,0-10.33,7.83-19.95,18.87-19.95.5,0,1,.06,1.46.09A112.37,112.37,0,0,0,156.1,188.27c2.64.08,5.12.14,7.23.14,11.76,0,29.95-1.43,29.95-1.43,6.06-.35,6.78,8.54.72,9.26,0,0-6.08.72-12.86,1.07L222.07,319l24.59-73.76-17.51-48c-6.05-.36-11.78-1.07-11.78-1.07-6.06-.36-5.35-9.62.71-9.26,0,0,18.55,1.43,29.6,1.43,11.75,0,29.95-1.43,29.95-1.43,6.06-.36,6.77,8.54.72,9.26,0,0-6.1.71-12.86,1.07l40.61,120.8,11.21-37.46C322.16,265.11,325.86,254,325.86,244.33Z"/><path class="cls-2" d="M252,259.83l-33.72,98a112.54,112.54,0,0,0,69.07-1.8,8.71,8.71,0,0,1-.8-1.55Z"/><path class="cls-2" d="M348.61,196.08a86.81,86.81,0,0,1,.75,11.56c0,11.4-2.13,24.22-8.54,40.25l-34.33,99.25a112.42,112.42,0,0,0,42.12-151.06Z"/><path class="cls-2" d="M250,119a131,131,0,0,0,0,262c72.23,0,131-58.76,131-131S322.23,119,250,119Zm0,256A125,125,0,1,1,375,250C375,318.92,318.91,375,250,375Z"/></svg>