<svg id="Layer_1" data-name="Layer 1" xmlns="http://www.w3.org/2000/svg" viewBox="0 0 500 500"><defs><style>.cls-1{fill:#1c1c1e;}.cls-2{fill:#d1d1d6;}</style></defs><rect class="cls-1" width="500" height="500" rx="130"/><path class="cls-2" d="M376.11,186.65a33.05,33.05,0,0,0-23.28-23.28C332.31,157.88,250,157.88,250,157.88s-82.31,0-102.83,5.49a33.05,33.05,0,0,0-23.28,23.28C118.4,207.17,118.4,250,118.4,250s0,42.83,5.49,63.35a33,33,0,0,0,23.28,23.28c20.52,5.49,102.83,5.49,102.83,5.49s82.31,0,102.83-5.49a33,33,0,0,0,23.28-23.28C381.6,292.83,381.6,250,381.6,250S381.59,207.17,376.11,186.65ZM223.66,289.48v-79L292,250Z"/></svg>